# xmcd
#
# Track frame offsets: 
#        150
#        15341
#        28300
#        41101
#        56319
#        72602
#        92126
#        112961
#        141486
#        161209
#        185732
#        204866
#        230979
#
# Disc length: 3303 seconds
#
# Revision: 0
# Processed by: cddbd v1.5.1PL0 Copyright (c) Steve Scherf et al.
# Submitted via: ExactAudioCopy v0.95b2
#
DISCID=c00ce50d
DTITLE=Various Artist - Telluride Bluegrass Festival - 30 Years
DYEAR=2005
DGENRE=Bluegrass
TTITLE0=Nellie Kane - Hot Rize
TTITLE1=Taxman - Nickel Creek
TTITLE2=Sweet Petunia - The Hackensaw Boys
TTITLE3=Not Pretty Enough - Kasey Chambers
TTITLE4=Fishin' in the Dark - Nitty Gritty Dirt Band
TTITLE5=Celebrate Your Youth - Keller Williams
TTITLE6=Molly and Tenbrooks - Sam Bush and Friends
TTITLE7=Cluck Old Hen - The Horse Flies
TTITLE8=Unchained Melody - The Boomchicks and John Cowan
TTITLE9=Too Late Now - Yonder Mountain String Band
TTITLE10=Another Day - The Tim O'Brien Band
TTITLE11=I Wish - The String Cheese Incident and Martin Sexton
TTITLE12=When I Die - The Waifs
EXTD=
EXTT0=
EXTT1=
EXTT2=
EXTT3=
EXTT4=
EXTT5=
EXTT6=
EXTT7=
EXTT8=
EXTT9=
EXTT10=
EXTT11=
EXTT12=
PLAYORDER=
